<?xml version="1.0" standalone="no"?>
<!DOCTYPE svg PUBLIC "-//W3C//DTD SVG 20010904//EN"
 "http://www.w3.org/TR/2001/REC-SVG-20010904/DTD/svg10.dtd">
<svg version="1.0" xmlns="http://www.w3.org/2000/svg"
 width="260.000000pt" height="260.000000pt" viewBox="0 0 260.000000 260.000000"
 preserveAspectRatio="xMidYMid meet">
<metadata>
Created by potrace 1.11, written by Peter Selinger 2001-2013
</metadata>
<g transform="translate(0.000000,260.000000) scale(0.100000,-0.100000)"
fill="#000000" stroke="none">
<path d="M1023 2583 c0 -10 3 -10 15 0 13 11 14 9 1 -10 l-14 -23 -12 23 c-7
12 -12 16 -13 9 0 -7 -5 -10 -12 -6 -7 4 -8 3 -4 -5 4 -6 11 -9 15 -7 4 3 8
-1 8 -8 0 -7 -6 -13 -13 -13 -7 0 -11 4 -9 8 9 14 -24 17 -35 3 -7 -8 -19 -14
-27 -14 -8 0 -11 -5 -7 -12 4 -7 3 -8 -5 -4 -6 4 -19 2 -28 -6 -10 -8 -14 -8
-10 -1 4 6 3 14 -3 18 -9 6 -14 -8 -11 -28 1 -4 -8 -3 -20 4 -19 10 -21 9 -16
-5 4 -9 2 -16 -3 -16 -6 0 -10 5 -10 11 0 5 -5 7 -10 4 -6 -4 -7 -11 -4 -17 4
-6 -1 -6 -14 1 -16 8 -23 7 -33 -6 -8 -9 -13 -18 -11 -20 5 -8 -7 -7 -15 1 -5
5 -2 6 6 1 10 -5 12 -4 7 4 -12 18 -25 3 -18 -22 5 -21 5 -21 -12 -4 -10 9
-19 17 -21 17 -3 0 -2 -8 2 -17 6 -16 3 -15 -17 2 l-23 20 12 -22 c12 -23 -2
-43 -15 -22 -5 8 -3 9 7 4 8 -5 10 -4 6 0 -14 16 -36 14 -30 -2 4 -10 -3 -23
-18 -34 -28 -21 -44 -25 -33 -6 6 9 5 9 -8 0 -8 -7 -18 -10 -22 -6 -4 4 -4 0
0 -10 4 -11 0 -19 -10 -23 -9 -3 -13 -11 -9 -18 3 -6 3 -8 -2 -4 -4 4 -15 2
-24 -5 -14 -10 -14 -10 -3 5 10 12 10 18 1 24 -7 4 -9 3 -5 -4 3 -6 1 -14 -5
-17 -5 -4 -8 -14 -4 -23 3 -9 3 -13 -1 -9 -4 4 -13 2 -21 -5 -11 -9 -13 -8
-11 2 2 7 -4 15 -12 17 -9 3 -11 1 -5 -4 6 -4 11 -16 11 -26 1 -12 -2 -15 -10
-8 -7 6 -18 4 -31 -6 -13 -10 -14 -14 -4 -10 9 3 22 1 30 -5 11 -8 11 -9 -3
-4 -10 3 -24 -1 -32 -9 -7 -8 -16 -11 -20 -8 -12 12 -6 -13 7 -27 6 -8 1 -6
-12 5 -14 11 -21 14 -17 8 4 -7 2 -13 -3 -13 -6 0 -11 -5 -11 -11 0 -5 5 -7
12 -3 6 4 3 -5 -8 -19 -10 -15 -23 -27 -27 -27 -5 0 -5 -4 -2 -10 3 -5 0 -8
-7 -5 -15 6 -41 -42 -31 -58 3 -6 1 -7 -4 -4 -6 4 -19 -3 -29 -14 -10 -11 -23
-18 -29 -15 -8 3 -10 -5 -7 -22 4 -21 2 -24 -12 -19 -10 4 -15 3 -11 -3 3 -6
1 -10 -4 -10 -6 0 -11 -5 -11 -11 0 -8 4 -8 14 0 10 8 16 9 21 1 4 -6 3 -10
-2 -9 -4 1 -18 -2 -31 -6 -21 -7 -21 -8 -5 -21 17 -13 17 -14 -1 -7 -16 5 -18
3 -13 -11 5 -14 3 -17 -8 -12 -8 3 -15 1 -15 -3 0 -5 6 -12 13 -14 9 -4 9 -6
-1 -6 -7 -1 -10 -6 -6 -13 5 -7 3 -8 -6 -3 -18 11 -31 -15 -18 -38 7 -14 7
-17 -1 -13 -6 4 -11 2 -11 -4 0 -6 -5 -8 -12 -4 -7 4 -8 3 -4 -4 4 -7 15 -12
24 -12 14 0 14 -2 3 -9 -8 -5 -21 -7 -30 -4 -13 4 -14 3 -2 -5 16 -11 25 -46
10 -36 -5 3 -7 9 -5 13 3 4 -1 8 -9 8 -9 0 -11 -5 -6 -16 10 -19 4 -41 -10
-41 -6 0 -8 4 -4 9 3 5 1 12 -4 15 -5 4 -8 -1 -7 -10 1 -8 9 -20 17 -25 13 -8
12 -10 -10 -13 -5 0 -13 -5 -18 -10 -4 -5 -3 -6 3 -3 7 4 17 0 24 -8 11 -13
10 -14 -6 -9 -18 7 -18 6 1 -17 16 -18 16 -21 2 -10 -9 8 -21 10 -25 6 -4 -4
-2 -10 5 -12 13 -5 6 -33 -9 -33 -5 0 -6 5 -2 12 4 7 3 8 -5 4 -9 -6 -9 -11 0
-22 6 -7 15 -11 20 -8 14 9 10 -6 -6 -23 -8 -8 -12 -19 -9 -25 4 -7 2 -8 -5
-4 -6 4 -9 12 -6 17 4 5 2 16 -3 25 -6 11 -10 -70 -11 -220 -2 -188 1 -236 11
-236 8 0 9 -3 3 -8 -5 -4 -11 -25 -11 -47 -1 -22 1 -34 3 -27 3 6 9 10 13 7 5
-3 6 -13 3 -23 -3 -9 -3 -14 1 -11 12 11 16 50 4 43 -7 -5 -8 -2 -3 6 5 8 4
11 -2 7 -5 -3 -10 0 -10 8 0 13 3 13 18 -1 16 -14 16 -22 7 -73 -2 -12 14 -41
21 -36 4 2 8 -2 8 -9 0 -8 -7 -12 -15 -9 -12 5 -12 2 -3 -15 7 -12 14 -22 17
-22 3 0 2 5 -2 12 -4 6 -3 8 4 5 14 -9 3 -49 -12 -40 -6 3 -3 -3 7 -14 9 -11
14 -23 10 -28 -5 -4 -2 -5 5 -1 7 4 9 13 6 19 -4 7 1 4 11 -5 16 -15 16 -19 4
-34 -9 -12 -10 -15 -2 -10 9 5 13 1 13 -13 0 -11 5 -23 10 -26 6 -3 10 -12 10
-18 0 -7 -4 -6 -10 3 -5 8 -10 10 -10 4 0 -6 8 -18 17 -25 11 -10 14 -10 9 -1
-4 7 -2 12 5 12 6 0 9 -8 6 -19 -4 -15 -1 -18 12 -14 9 4 13 3 9 -2 -4 -4 -3
-15 4 -22 11 -13 14 -26 20 -70 1 -10 5 -10 15 -1 7 6 16 8 20 4 3 -3 2 -6 -3
-6 -5 0 -10 -9 -10 -19 0 -11 4 -17 8 -15 4 3 8 -2 8 -10 0 -8 5 -18 12 -22 7
-4 8 -3 4 4 -5 8 -2 10 9 6 11 -5 13 -10 5 -19 -7 -9 -6 -16 5 -25 8 -7 12
-17 8 -23 -4 -6 -1 -7 6 -3 9 6 8 13 -6 29 -14 18 -13 17 9 -2 23 -20 26 -27
15 -40 -9 -12 -9 -13 1 -7 6 4 12 2 12 -3 0 -6 6 -10 13 -9 7 2 11 -7 10 -25
l-2 -28 19 23 c19 23 23 7 6 -21 -6 -10 -5 -12 2 -7 7 4 12 2 12 -5 0 -8 4 -8
15 1 9 7 18 10 22 6 3 -3 1 -6 -5 -6 -7 0 -12 -7 -12 -15 0 -14 12 -20 34 -16
5 1 6 -8 3 -19 -4 -15 -2 -19 6 -12 22 16 42 8 39 -16 -2 -17 2 -22 17 -22 12
0 21 -5 21 -11 0 -5 5 -7 12 -3 8 5 9 2 5 -9 -3 -9 -1 -19 5 -23 7 -4 8 -3 4
4 -4 7 -2 12 3 12 6 0 11 -7 11 -15 0 -9 6 -12 15 -9 9 4 18 -2 24 -17 5 -13
10 -18 10 -11 1 6 6 12 12 12 6 0 9 -7 5 -15 -3 -8 0 -16 7 -17 7 0 17 -2 22
-2 6 -1 20 -7 33 -14 17 -10 22 -10 22 -1 0 7 3 9 6 6 4 -4 1 -15 -7 -24 -7
-10 -9 -15 -5 -11 5 4 15 0 23 -10 14 -16 14 -16 9 2 -5 15 -4 17 7 8 8 -7 18
-8 23 -4 4 4 2 -1 -5 -11 -8 -9 -11 -20 -7 -24 3 -3 6 -1 6 5 0 20 60 10 76
-12 8 -11 14 -16 14 -11 0 5 5 4 11 -2 6 -6 18 -9 27 -6 11 5 13 2 7 -8 -6
-11 -5 -12 5 -2 9 9 19 9 32 2 11 -6 26 -8 34 -5 7 3 13 0 11 -6 -1 -6 4 -13
12 -16 8 -2 11 0 7 6 -3 6 -1 14 5 18 8 4 9 3 5 -5 -4 -6 0 -14 11 -18 10 -4
22 -11 26 -17 5 -6 6 -1 2 11 -3 12 -2 24 3 27 6 3 10 0 9 -7 -1 -48 -14 -46
250 -44 209 2 247 4 251 17 4 12 2 13 -9 3 -16 -16 -29 -17 -29 -2 0 5 4 8 9
4 5 -3 12 -1 16 4 3 6 13 7 22 4 12 -5 14 -3 8 7 -5 9 -4 11 4 6 8 -6 9 -12 2
-20 -11 -14 -5 -26 13 -26 6 0 4 5 -4 10 -8 5 -12 10 -7 11 39 8 67 20 67 31
0 6 10 3 22 -8 12 -10 18 -13 14 -7 -4 7 -2 13 4 13 6 0 8 4 5 10 -4 6 1 7 11
3 13 -5 15 -3 9 8 -4 8 -5 11 0 7 11 -11 36 12 28 25 -3 6 -1 7 6 3 6 -4 9
-12 6 -17 -4 -5 -1 -9 4 -9 6 0 11 5 11 10 0 6 4 10 10 10 5 0 7 -8 3 -18 -5
-14 -3 -13 10 3 8 11 13 24 10 30 -2 5 3 1 11 -9 16 -19 16 -19 16 5 0 19 2
21 10 9 9 -13 12 -13 24 2 15 20 31 25 20 6 -4 -7 -3 -8 4 -4 7 4 12 13 12 21
0 8 5 17 12 21 7 4 8 3 4 -4 -4 -8 4 -10 25 -7 38 5 45 10 24 19 -11 4 -14 2
-9 -6 4 -7 3 -8 -5 -4 -21 13 -1 25 29 16 18 -5 32 -5 36 1 3 5 2 8 -3 7 -4
-2 -9 2 -11 7 -1 6 6 11 18 13 11 2 28 14 36 28 9 13 23 24 30 24 8 0 14 8 14
17 0 15 2 14 14 -3 15 -19 15 -19 12 1 -5 29 3 36 24 25 13 -7 21 -7 26 2 4 6
3 8 -4 4 -6 -3 -13 -2 -17 4 -3 5 -1 10 5 10 6 0 9 4 6 9 -6 9 41 26 58 22 5
-1 4 5 -3 13 -10 12 -9 14 6 11 27 -4 46 14 32 31 -8 10 -5 12 18 8 27 -4 27
-4 6 9 -22 12 -22 13 -2 25 11 7 24 10 29 7 6 -4 10 -2 10 4 0 5 -6 12 -12 14
-7 3 -3 6 10 6 13 1 20 5 17 11 -3 5 -1 10 4 10 6 0 11 5 11 11 0 5 -5 7 -12
3 -7 -4 -8 -3 -4 4 4 7 14 12 22 12 8 0 12 5 9 10 -3 6 1 13 10 16 9 4 14 13
11 20 -3 8 1 14 10 14 9 0 12 -5 8 -12 -4 -7 -3 -8 5 -4 9 6 9 11 -1 24 -10
12 -10 16 0 19 6 3 10 9 7 14 -4 5 1 6 9 3 11 -4 16 0 16 14 0 12 5 24 11 27
6 4 8 14 4 22 -4 13 -3 14 10 3 14 -11 14 -10 6 12 -7 18 -6 25 4 25 8 0 11
-7 7 -16 -6 -17 -4 -16 18 13 10 13 10 17 2 12 -14 -8 -12 28 3 41 4 5 5 2 1
-4 -4 -7 -2 -13 3 -13 13 0 13 3 5 24 -3 9 -11 13 -18 9 -6 -4 -5 1 3 10 15
19 26 23 15 5 -5 -7 -3 -8 6 -3 10 6 9 11 -6 22 -19 14 -19 14 0 11 10 -2 21
3 24 11 3 9 0 11 -8 6 -9 -6 -11 -4 -6 4 5 7 14 10 22 7 8 -3 14 -1 14 4 0 6
-6 10 -12 10 -10 0 -9 3 1 9 9 6 12 21 9 44 -3 31 -2 34 11 24 11 -9 13 -9 8
0 -4 6 -3 14 2 17 5 4 7 21 4 40 -3 22 -1 36 8 41 9 6 11 3 6 -8 -3 -10 -2
-17 3 -17 6 0 10 97 9 260 -1 176 -5 257 -12 253 -7 -4 -8 0 -4 11 5 14 3 17
-8 12 -8 -3 -14 0 -12 7 1 7 -5 11 -13 9 -12 -3 -13 -1 -2 9 9 10 15 10 24 1
7 -7 17 -12 22 -12 6 0 0 7 -12 16 -12 8 -20 20 -16 25 3 6 -3 13 -15 16 -22
6 -27 18 -11 28 6 3 10 11 10 16 0 6 -4 8 -9 4 -5 -3 -11 5 -13 17 -2 13 -9
22 -16 21 -6 -2 -12 2 -12 7 0 17 18 11 34 -11 15 -22 15 -22 13 -1 0 11 -4
20 -7 19 -3 -1 -6 1 -7 6 -2 4 -12 17 -23 29 -23 25 -26 44 -8 50 7 3 5 7 -6
11 -11 5 -15 3 -10 -5 4 -7 3 -8 -4 -4 -7 4 -12 14 -12 22 0 9 5 12 12 8 7 -4
8 -3 4 4 -4 6 -13 9 -22 5 -12 -4 -14 1 -10 23 6 29 -10 58 -25 48 -5 -3 -9 2
-9 10 0 8 -10 26 -22 38 -22 23 -30 40 -31 66 0 6 -9 12 -20 12 -14 0 -18 5
-14 20 3 14 -1 21 -17 27 -11 4 -25 6 -30 4 -5 -1 -1 11 9 26 10 15 12 22 4
16 -18 -17 -29 -16 -29 3 0 9 5 12 13 8 7 -4 9 -3 4 2 -9 9 -13 10 -44 13 -15
1 -16 3 -3 11 13 8 13 11 1 22 -8 7 -11 8 -8 3 3 -6 -3 -11 -13 -11 -12 0 -16
4 -10 11 5 6 5 17 -2 25 -8 12 -9 12 -4 -2 3 -10 1 -18 -4 -18 -6 0 -11 7 -11
15 -3 29 -4 33 -13 42 -5 4 -6 3 -2 -4 4 -8 -1 -11 -14 -10 -11 1 -20 5 -20
10 0 4 -4 6 -9 2 -5 -3 -13 0 -17 6 -4 7 -3 9 3 6 7 -4 10 3 9 17 -1 24 -10
27 -35 12 -9 -6 -12 -5 -8 1 4 6 0 14 -9 17 -9 3 -12 11 -8 18 5 9 2 8 -9 -1
-15 -12 -17 -12 -11 4 5 13 4 16 -4 11 -7 -4 -12 -2 -12 3 0 6 -5 11 -11 11
-5 0 -7 -6 -3 -12 4 -7 -2 -5 -13 5 -11 9 -23 14 -28 10 -4 -5 -5 -3 -2 3 4 7
-1 20 -11 31 -9 10 -13 13 -8 6 6 -10 4 -12 -8 -7 -9 3 -16 10 -16 14 0 4 -7
11 -16 14 -8 3 -13 2 -10 -2 2 -4 -4 -8 -14 -8 -10 0 -18 3 -18 6 0 3 0 16 -2
30 -1 23 -2 23 -10 5 -8 -19 -9 -19 -9 -1 -1 15 -4 16 -16 6 -13 -11 -14 -10
-8 6 6 17 5 17 -10 5 -13 -11 -17 -11 -17 -1 0 8 -3 10 -7 7 -10 -10 -34 14
-26 27 3 6 0 5 -8 -2 -12 -11 -12 -14 1 -22 9 -6 10 -10 3 -10 -6 0 -15 5 -18
10 -4 6 -10 8 -15 5 -5 -3 -11 -1 -14 4 -4 5 -1 13 5 17 8 5 9 3 4 -6 -5 -9
-4 -11 3 -6 15 9 15 11 -5 27 -9 8 -14 9 -10 3 8 -13 -11 -23 -30 -17 -7 3
-13 12 -14 21 -1 10 -4 7 -9 -8 -6 -18 -8 -20 -9 -7 -1 10 -5 15 -11 12 -18
-11 -51 -14 -45 -4 4 5 10 7 15 4 5 -3 11 -1 14 3 3 5 -5 8 -17 7 -12 -1 -22
-3 -22 -4 0 -2 -8 -4 -18 -6 -9 -2 -15 1 -11 6 3 5 1 9 -5 9 -5 0 -11 -6 -14
-12 -3 -7 -4 -3 -4 10 1 25 8 27 25 10 9 -9 12 -9 12 1 0 7 5 9 12 5 6 -4 8
-3 5 3 -4 7 -95 11 -247 12 -181 1 -239 -2 -234 -11 5 -7 3 -8 -7 -2 -22 14
-76 12 -76 -3z m73 -20 c-8 -8 -56 -11 -51 -3 3 4 16 8 30 8 14 0 24 -3 21 -5z
m-126 -13 c0 -5 -5 -10 -11 -10 -5 0 -7 5 -4 10 3 6 8 10 11 10 2 0 4 -4 4
-10z m385 -111 c-4 -5 -1 -9 4 -9 6 0 11 4 11 9 0 5 14 8 30 7 22 0 29 -5 25
-16 -4 -8 -3 -11 1 -7 4 4 13 2 21 -5 8 -6 13 -7 12 -2 -4 23 3 26 23 8 19
-16 20 -16 9 -1 -8 9 -11 20 -7 24 3 3 6 1 6 -5 0 -7 14 -12 31 -12 17 0 28
-4 24 -10 -3 -5 5 -9 17 -8 38 1 48 -1 48 -13 0 -8 -6 -7 -17 2 -16 13 -17 12
-4 -3 7 -10 17 -16 21 -13 5 3 10 2 13 -2 2 -5 3 -3 1 3 -3 13 33 7 42 -7 3
-5 11 -9 17 -9 7 0 6 4 -3 10 -8 5 -10 10 -5 10 6 0 16 -5 23 -12 8 -8 15 -8
28 3 12 9 15 10 10 2 -4 -7 -2 -13 4 -13 6 0 10 -7 8 -16 -2 -10 5 -18 15 -19
9 -2 15 0 12 5 -13 22 26 0 60 -33 40 -39 55 -45 55 -24 0 9 3 8 9 -2 5 -8 14
-10 22 -6 9 6 11 3 5 -10 -5 -15 -4 -16 9 -5 8 7 15 10 15 7 0 -3 3 -14 6 -24
5 -15 4 -16 -6 -3 -10 13 -11 13 -7 0 2 -8 12 -15 23 -16 35 -1 56 -16 51 -35
-5 -19 0 -22 36 -22 9 0 17 -3 17 -7 0 -4 10 -10 22 -13 12 -4 19 -9 16 -12
-3 -4 -15 -2 -27 4 -13 8 -22 8 -26 1 -4 -6 -3 -10 2 -9 20 3 34 -2 28 -11 -3
-5 0 -7 8 -4 8 3 18 0 23 -7 5 -8 3 -10 -6 -4 -9 5 -11 4 -6 -4 6 -9 11 -9 23
1 14 11 15 10 8 -11 -5 -16 -4 -21 4 -17 6 4 11 2 11 -3 0 -6 5 -10 11 -8 6 1
13 -6 14 -15 2 -10 -2 -18 -8 -18 -5 0 -7 -3 -4 -6 4 -4 13 -2 20 5 12 9 13 7
9 -14 -2 -14 0 -25 7 -25 5 0 9 6 7 13 -1 6 -1 9 1 4 3 -4 9 -4 15 -1 5 4 5
-4 -2 -16 -10 -19 -10 -22 2 -17 8 3 15 -1 15 -9 0 -7 -5 -10 -10 -7 -6 4 -7
1 -3 -6 5 -7 14 -10 21 -7 14 5 30 -20 26 -43 -2 -8 2 -10 11 -5 9 5 8 2 -2
-11 -12 -15 -12 -17 -1 -10 11 6 13 4 7 -10 -6 -16 -4 -16 11 -4 15 13 16 12
11 -8 -4 -15 -2 -20 7 -17 16 6 28 -23 13 -32 -7 -5 -8 -2 -3 6 5 9 4 11 -4 6
-16 -10 -4 -26 15 -19 14 5 15 3 5 -15 -13 -24 -15 -43 -2 -23 7 10 12 4 22
-22 7 -20 17 -33 23 -30 6 3 5 0 -1 -8 -18 -18 -16 -29 5 -29 9 0 13 -4 7 -8
-17 -12 -11 -57 7 -54 12 2 15 -3 11 -18 -3 -11 -10 -20 -17 -20 -6 0 -4 -5 4
-10 20 -13 39 -12 20 1 -13 9 -13 10 0 6 8 -2 14 -11 12 -20 -1 -8 2 -18 7
-22 6 -3 8 -12 5 -20 -4 -8 -10 -12 -15 -9 -5 3 -6 -2 -3 -10 3 -9 9 -14 13
-11 4 2 8 -2 8 -10 0 -18 -9 -19 -26 -2 -8 6 -6 0 4 -15 10 -16 22 -25 29 -21
6 4 5 -1 -3 -11 -13 -15 -13 -19 0 -28 11 -7 9 -9 -8 -5 -22 5 -22 4 -5 -21
12 -19 13 -27 4 -30 -6 -2 -12 -8 -12 -13 0 -6 4 -8 9 -4 5 3 13 0 17 -6 4 -7
3 -9 -4 -5 -6 3 -13 2 -17 -4 -3 -5 -1 -10 6 -10 8 0 7 -5 -2 -17 -12 -14 -12
-16 0 -8 9 5 12 4 7 -3 -3 -6 -1 -14 5 -18 9 -5 7 -11 -6 -21 -11 -7 -14 -13
-9 -13 6 0 11 -7 11 -15 0 -12 -3 -12 -15 -2 -13 10 -14 9 -4 -9 6 -12 8 -24
5 -28 -3 -3 -1 -6 6 -6 7 0 9 -5 6 -10 -5 -8 -12 -7 -23 2 -16 12 -16 11 -2
-7 8 -11 20 -24 25 -28 6 -5 3 -7 -7 -3 -18 5 -24 -5 -11 -18 4 -3 7 -15 8
-26 1 -16 -1 -18 -14 -7 -12 9 -13 9 -7 0 4 -7 9 -22 11 -32 3 -15 -2 -19 -23
-16 -23 2 -24 1 -9 -10 22 -16 22 -26 1 -18 -14 5 -15 3 -4 -17 7 -12 7 -20 2
-16 -6 3 -13 2 -17 -4 -3 -5 0 -10 7 -10 9 0 9 -3 -2 -10 -10 -6 -11 -10 -2
-10 6 0 12 -5 12 -12 0 -6 -3 -9 -6 -5 -4 3 -14 -4 -24 -16 -14 -17 -16 -26
-7 -42 9 -18 8 -18 -6 -7 -13 11 -15 10 -12 -13 1 -17 -2 -25 -10 -22 -6 3
-12 -1 -12 -9 0 -7 5 -10 10 -7 5 3 2 -8 -9 -26 -10 -17 -22 -31 -26 -31 -4 0
-8 -5 -8 -11 0 -5 6 -7 13 -3 6 4 4 -2 -6 -13 -9 -11 -14 -23 -10 -28 5 -4 -3
-2 -17 5 -21 10 -23 10 -13 -1 11 -10 8 -15 -15 -26 -15 -7 -20 -11 -11 -9 9
2 16 -2 16 -9 0 -7 -8 -12 -18 -10 -12 2 -16 -1 -13 -10 3 -7 0 -16 -5 -20 -6
-3 -8 -12 -4 -18 3 -7 -4 -3 -18 8 -18 15 -20 16 -10 3 8 -12 9 -18 3 -18 -6
0 -9 -6 -6 -14 3 -8 0 -17 -7 -22 -8 -5 -10 -3 -4 6 5 9 4 11 -4 6 -6 -4 -10
-13 -9 -20 3 -13 -61 -80 -69 -73 -2 3 10 16 27 31 17 14 27 26 21 26 -6 0
-21 -11 -33 -25 -11 -13 -25 -22 -30 -19 -12 8 -5 -19 7 -28 6 -5 6 -8 -2 -8
-7 0 -16 6 -20 14 -7 12 -10 11 -23 -2 -13 -14 -12 -15 2 -9 12 4 15 2 12 -8
-3 -8 -12 -11 -19 -9 -7 3 -16 0 -21 -7 -4 -8 -3 -10 4 -5 25 15 10 -3 -15
-20 -27 -17 -28 -17 -13 2 14 17 13 18 -1 7 -9 -7 -19 -9 -24 -5 -4 4 -2 -3 4
-16 7 -12 8 -22 4 -21 -20 3 -34 -2 -28 -11 4 -7 -3 -7 -20 0 -14 5 -24 6 -21
1 3 -5 -1 -11 -9 -15 -8 -3 -15 -15 -15 -26 0 -12 -4 -19 -8 -16 -4 2 -14 1
-22 -4 -8 -5 -22 -4 -34 2 -20 11 -20 10 -6 -8 8 -10 10 -16 6 -12 -5 4 -15 3
-22 -2 -13 -12 -36 -10 -45 4 -4 5 -10 -1 -14 -13 -6 -19 -9 -20 -23 -9 -9 7
-13 8 -10 3 4 -6 3 -17 -3 -25 -7 -13 -9 -12 -9 2 0 11 -5 15 -14 12 -8 -3
-12 -13 -9 -22 4 -15 3 -15 -6 -2 -9 13 -13 12 -27 -9 -14 -20 -18 -21 -26 -8
-8 14 -11 14 -41 0 -66 -33 -69 -35 -63 -25 10 17 -22 22 -35 6 -10 -12 -14
-12 -20 -2 -7 10 -9 10 -10 -2 0 -10 -3 -8 -9 5 l-9 20 0 -20 c-1 -17 -3 -17
-11 -5 -7 11 -10 12 -10 2 0 -10 -10 -12 -35 -9 -22 3 -35 1 -35 -7 -1 -6 -7
0 -14 13 -8 14 -16 19 -20 13 -3 -6 -1 -12 6 -14 7 -3 3 -7 -9 -10 -16 -4 -20
-2 -16 9 5 13 3 13 -15 2 -17 -10 -23 -10 -37 4 -19 20 -29 22 -19 5 5 -8 2
-9 -9 -5 -10 3 -17 2 -17 -4 0 -6 -5 -7 -10 -4 -8 5 -7 12 2 23 11 15 11 15
-2 5 -10 -8 -21 -9 -30 -3 -8 6 -19 10 -25 9 -5 0 1 -6 14 -13 20 -11 21 -14
7 -19 -11 -5 -15 -3 -10 4 5 8 -3 10 -24 7 -25 -4 -29 -2 -21 9 14 16 5 17
-22 3 -21 -12 -64 4 -54 20 7 11 -23 20 -57 16 -16 -2 -28 1 -28 7 0 5 -6 5
-14 -2 -11 -9 -21 -4 -47 26 -19 21 -31 34 -26 29 14 -18 7 -27 -9 -12 -18 18
-39 22 -28 4 4 -7 3 -8 -5 -4 -6 4 -8 12 -5 18 5 7 1 9 -8 5 -10 -3 -24 3 -35
16 l-18 22 23 -19 c12 -11 22 -14 22 -9 0 6 -7 14 -16 17 -9 3 -12 11 -8 18 4
7 -3 4 -16 -7 -13 -11 -20 -14 -16 -7 4 7 1 12 -9 12 -9 0 -13 5 -9 11 5 8 1
8 -14 0 -17 -9 -19 -8 -15 9 5 19 -5 25 -31 21 -5 -1 -6 6 -2 15 5 13 3 14 -6
6 -17 -13 -38 7 -38 37 0 5 -7 12 -16 15 -15 6 -15 4 -3 -11 12 -16 12 -17 -2
-6 -9 7 -18 10 -21 7 -3 -3 -9 0 -14 7 -4 7 -3 10 3 6 6 -4 13 -1 16 7 3 8 -1
13 -11 12 -10 0 -16 5 -14 13 3 12 1 12 -14 0 -16 -13 -16 -12 -4 11 13 24 12
24 -5 10 -17 -14 -18 -13 -12 2 4 12 2 15 -9 11 -16 -6 -19 8 -4 23 7 7 6 11
-4 11 -8 0 -13 -4 -10 -8 2 -4 0 -11 -6 -14 -6 -4 -10 -3 -9 2 5 27 -2 53 -13
47 -7 -5 -9 -2 -5 8 4 12 1 14 -14 11 -11 -3 -19 0 -19 6 0 7 6 9 12 6 7 -4 2
3 -12 15 -14 12 -20 19 -13 16 13 -7 12 19 -2 31 -4 4 -5 2 0 -5 5 -10 2 -13
-11 -10 -11 2 -18 11 -16 21 2 9 -2 17 -8 17 -5 0 -10 5 -10 11 0 5 6 7 12 3
9 -5 9 -2 -1 9 -18 22 -32 22 -24 0 6 -15 5 -16 -9 -3 -10 10 -12 17 -5 22 6
3 12 14 13 22 1 9 -2 14 -7 10 -5 -3 -7 -10 -4 -15 3 -5 -1 -6 -10 -3 -13 5
-13 9 -3 22 11 13 10 15 -3 10 -13 -5 -16 -2 -12 15 4 18 3 19 -6 7 -7 -9 -11
-10 -11 -3 0 6 4 15 10 18 6 4 5 13 -2 25 -7 10 -16 16 -20 14 -4 -3 -8 2 -8
10 0 10 7 13 21 11 12 -3 19 -1 15 2 -12 12 -46 13 -46 1 0 -6 -3 -8 -7 -5 -3
4 2 16 12 27 17 18 17 20 2 14 -18 -6 -24 10 -8 20 16 10 0 45 -17 39 -10 -4
-14 -3 -10 2 4 4 2 15 -4 23 -16 18 -19 40 -7 48 5 3 9 10 9 16 0 7 -4 7 -14
-1 -11 -9 -12 -4 -6 29 6 33 5 40 -9 41 -11 0 -12 2 -3 6 10 4 10 8 0 21 -10
12 -10 14 0 8 6 -4 12 -2 12 3 0 6 -4 11 -9 11 -5 0 -8 8 -6 18 1 9 8 16 13
15 6 -2 9 4 6 12 -4 8 -14 15 -23 15 -14 0 -14 2 -1 10 8 5 11 10 6 10 -5 0
-2 8 5 17 8 9 9 14 3 10 -7 -4 -14 -1 -17 7 -3 8 1 13 10 12 9 0 18 6 20 14 4
12 3 12 -5 1 -10 -14 -19 -5 -17 19 0 8 -4 18 -10 22 -7 5 -6 8 1 8 7 0 10 13
9 30 -1 17 2 33 8 37 6 4 7 1 2 -7 -6 -9 -4 -11 4 -6 9 6 9 12 -3 25 -9 10
-13 21 -9 25 8 8 12 28 16 72 1 18 6 30 11 27 4 -3 5 5 1 18 -7 22 -7 23 10 9
11 -9 16 -10 11 -2 -4 6 -2 12 3 12 6 0 11 5 11 11 0 5 -4 7 -10 4 -5 -3 -10
-1 -10 4 0 6 5 11 11 11 8 0 7 6 -2 17 -8 9 -9 14 -3 10 7 -4 14 0 18 8 3 8 1
15 -5 15 -6 0 -7 5 -4 10 4 6 12 7 18 3 7 -4 5 2 -3 12 -14 17 -13 18 2 12 10
-3 17 -2 15 3 -1 5 7 16 18 25 20 16 20 16 -1 6 -16 -8 -21 -7 -21 4 0 8 4 12
8 10 11 -7 30 21 24 37 -3 8 7 23 25 36 30 23 39 42 19 42 -5 0 -8 -4 -5 -9 3
-5 -1 -14 -8 -20 -11 -9 -16 -9 -22 0 -4 8 -3 9 4 5 7 -4 12 -1 12 9 0 8 7 18
16 22 8 3 13 12 10 19 -3 8 -2 13 2 13 20 -3 25 2 12 12 -12 9 -11 10 8 6 12
-3 20 -1 16 4 -3 5 0 9 6 9 6 0 8 5 5 10 -3 6 -1 10 4 10 6 0 11 7 11 16 0 11
5 14 16 10 15 -6 15 -4 3 11 -12 14 -12 16 0 8 11 -6 13 -4 8 7 -8 22 3 30 20
16 11 -8 12 -7 8 5 -4 8 -1 18 6 23 8 5 10 3 4 -7 -7 -11 -5 -11 11 1 10 8 20
15 22 16 2 1 -4 4 -13 8 -11 4 -14 2 -9 -6 4 -7 3 -8 -5 -4 -6 4 -9 12 -5 17
3 5 10 7 15 4 5 -4 9 -1 9 6 0 8 4 8 15 -1 13 -11 14 -10 9 4 -4 11 1 24 15
37 11 11 21 25 21 31 0 6 3 9 6 6 3 -4 0 -16 -6 -28 -10 -19 -10 -20 8 -9 13
8 19 21 16 33 -3 21 -3 21 11 2 14 -19 15 -19 15 5 0 18 8 29 26 38 15 6 29 9
32 6 3 -3 0 -5 -6 -5 -7 0 -12 -5 -12 -12 0 -6 12 -1 26 13 15 14 23 31 20 42
-4 15 -2 16 10 6 8 -6 15 -10 17 -8 1 2 7 13 13 24 6 11 15 20 20 21 5 0 17 4
27 9 10 4 21 5 24 1 3 -3 12 2 20 12 8 9 12 12 9 6 -3 -6 1 -11 8 -11 8 0 12
6 9 14 -4 9 0 11 13 6 13 -5 16 -3 12 9 -5 11 -1 14 17 10 12 -2 26 1 29 7 4
5 14 7 23 4 12 -5 14 -3 8 8 -7 12 -6 12 9 -1 28 -22 43 -20 40 5 -1 18 2 22
14 18 9 -4 13 -2 9 4 -5 7 1 9 15 5 16 -4 19 -2 13 9 -7 11 -6 12 7 2 8 -7 18
-10 21 -6 4 3 13 0 21 -6 11 -10 16 -9 23 4 11 18 50 28 58 14 4 -5 12 -6 18
-2 17 11 37 12 37 3 0 -4 7 -11 16 -14 13 -5 14 -4 6 7 -9 11 -4 13 28 13 23
0 34 -3 27 -8 -7 -4 -7 -8 -1 -8 5 0 15 5 22 12 9 9 12 9 12 -1 0 -7 5 -9 10
-6 6 4 7 11 4 17 -4 7 -2 8 5 4 6 -4 9 -12 6 -17z m-257 -14 c-3 -3 -9 2 -12
12 -6 14 -5 15 5 6 7 -7 10 -15 7 -18z m756 -110 c3 -8 11 -13 18 -11 7 1 10
1 5 -1 -4 -3 -4 -10 0 -16 3 -6 -6 -2 -20 9 -27 19 -34 34 -18 34 5 0 11 -7
15 -15z m-1192 -67 c-7 -7 -12 -8 -12 -2 0 14 12 26 19 19 2 -3 -1 -11 -7 -17z
m1388 -62 c0 -3 -4 -8 -10 -11 -5 -3 -10 -1 -10 4 0 6 5 11 10 11 6 0 10 -2
10 -4z m400 -266 c0 -5 -4 -10 -10 -10 -5 0 -10 5 -10 10 0 6 5 10 10 10 6 0
10 -4 10 -10z m54 -146 c3 -8 2 -12 -4 -9 -6 3 -10 10 -10 16 0 14 7 11 14 -7z
m-126 -29 c-3 -3 -9 2 -12 12 -6 14 -5 15 5 6 7 -7 10 -15 7 -18z m203 -237
c-11 -11 -13 -10 -7 0 4 7 2 21 -5 30 -12 15 -11 15 6 0 16 -15 17 -20 6 -30z
m-2534 -433 c0 -8 -4 -12 -9 -9 -10 7 -10 24 0 24 5 0 9 -7 9 -15z m2523 -76
c0 -5 -4 -9 -8 -9 -5 0 -9 7 -9 15 0 8 4 12 9 9 4 -3 8 -9 8 -15z m-2513 -24
c0 -8 -4 -12 -9 -9 -5 3 -6 10 -3 15 9 13 12 11 12 -6z m24 -118 c-10 -9 -11
-8 -5 6 3 10 9 15 12 12 3 -3 0 -11 -7 -18z m2299 3 c-8 -5 -19 -10 -25 -10
-5 0 -3 5 5 10 8 5 20 10 25 10 6 0 3 -5 -5 -10z m-130 -465 c0 -12 -19 -12
-23 0 -4 9 -1 12 9 8 7 -3 14 -7 14 -8z m-360 -90 c-7 -9 -15 -13 -19 -10 -3
3 1 10 9 15 21 14 24 12 10 -5z m-1023 -227 c-3 -8 -6 -5 -6 6 -1 11 2 17 5
13 3 -3 4 -12 1 -19z m224 -55 c13 -17 13 -17 -6 -3 -11 8 -22 16 -24 17 -2 2
0 3 6 3 6 0 17 -8 24 -17z"/>
<path d="M1133 2423 c0 -9 4 -10 14 -2 7 6 13 12 13 14 0 1 -6 2 -13 2 -8 0
-14 -6 -14 -14z"/>
<path d="M1390 2430 c-9 -6 -10 -10 -3 -10 6 0 15 5 18 10 8 12 4 12 -15 0z"/>
<path d="M1035 2410 c-4 -6 -10 -8 -14 -6 -4 3 -13 0 -21 -5 -11 -7 -10 -8 8
-6 20 3 56 27 40 27 -4 0 -10 -5 -13 -10z"/>
<path d="M1790 2324 c0 -8 5 -12 10 -9 6 4 8 11 5 16 -9 14 -15 11 -15 -7z"/>
<path d="M756 2312 c-3 -5 1 -9 9 -9 8 0 12 4 9 9 -3 4 -7 8 -9 8 -2 0 -6 -4
-9 -8z"/>
<path d="M726 2294 c-4 -9 -4 -19 -1 -22 3 -3 5 0 5 7 0 7 4 9 10 6 6 -3 7 1
4 9 -8 20 -10 20 -18 0z"/>
<path d="M1980 2206 c0 -2 7 -7 16 -10 8 -3 12 -2 9 4 -6 10 -25 14 -25 6z"/>
<path d="M666 1615 c-3 -8 -3 -23 0 -32 5 -17 5 -17 -6 0 -6 9 -16 17 -22 17
-7 0 -7 -4 0 -13 6 -7 7 -19 3 -26 -6 -10 -10 -9 -14 3 -4 9 -12 16 -19 16 -8
0 -9 -3 -3 -8 16 -12 18 -35 2 -29 -11 4 -13 0 -10 -14 3 -10 10 -19 15 -19 5
0 7 4 4 8 -3 5 1 9 9 9 10 0 12 -4 5 -12 -5 -7 -6 -16 -2 -20 4 -5 1 -5 -7 0
-10 6 -12 4 -7 -4 5 -7 15 -10 23 -7 8 3 11 2 8 -3 -3 -5 4 -12 15 -16 11 -4
18 -10 16 -14 -3 -4 1 -8 9 -8 8 0 11 5 8 10 -4 7 1 8 13 3 10 -5 28 -9 39
-10 11 0 24 -5 28 -11 5 -6 7 -4 4 5 -2 8 -14 14 -26 14 -12 -1 -19 1 -16 4 8
8 54 10 53 3 -2 -20 3 -31 12 -26 6 4 7 12 3 18 -4 7 1 5 12 -3 10 -8 21 -14
24 -12 3 1 14 -4 23 -12 9 -8 28 -13 42 -10 15 2 26 0 26 -5 0 -6 -10 -8 -21
-6 -12 3 -18 1 -15 -3 4 -4 16 -8 27 -8 44 -3 49 -5 49 -15 0 -5 -5 -7 -12 -3
-7 4 -8 3 -4 -5 6 -9 11 -9 24 1 13 11 15 10 8 -17 -4 -20 -4 -25 3 -16 5 8
17 16 26 17 9 1 14 0 11 -3 -3 -4 2 -16 11 -27 13 -16 10 -14 -12 4 l-30 25
25 -28 c14 -17 30 -25 39 -22 9 3 12 3 9 -1 -4 -3 0 -13 8 -22 13 -12 13 -16
2 -23 -7 -5 -8 -9 -2 -9 5 0 15 5 22 10 6 6 10 8 8 5 -2 -3 9 -19 25 -36 17
-19 26 -36 22 -46 -4 -11 -3 -14 6 -9 13 8 11 -15 -2 -25 -5 -3 -1 -9 8 -12 9
-4 14 -3 11 1 -3 5 1 9 9 9 12 0 12 -4 -2 -20 -10 -11 -13 -17 -6 -14 6 4 14
3 18 -3 3 -5 1 -10 -6 -10 -7 0 -4 -7 7 -16 10 -8 13 -12 5 -8 -10 5 -13 3 -8
-8 3 -9 0 -21 -6 -27 -9 -9 -8 -11 6 -6 10 4 17 2 17 -4 0 -6 -6 -11 -12 -11
-9 0 -10 -3 -2 -8 6 -4 10 -15 9 -24 -2 -12 2 -15 13 -11 14 5 15 3 5 -8 -18
-18 -16 -34 1 -20 12 10 13 8 9 -10 -5 -17 -3 -20 8 -14 12 8 12 6 0 -8 -14
-18 -26 -23 -16 -8 3 5 1 12 -4 15 -11 7 -8 -9 7 -44 6 -14 11 -18 12 -10 0
13 2 13 9 0 6 -8 7 -19 3 -25 -4 -7 -1 -7 9 1 8 5 24 9 37 8 12 0 22 3 22 9 0
6 3 8 6 5 3 -4 0 -17 -6 -30 l-12 -23 21 23 c12 12 19 26 16 31 -9 16 16 25
27 10 8 -12 9 -11 5 1 -2 8 2 23 11 33 14 15 13 19 -4 38 -23 25 -22 22 -5 43
8 9 10 16 5 15 -23 -4 -30 3 -30 30 1 16 4 33 8 36 4 4 -3 16 -15 27 -12 11
-17 17 -10 14 8 -4 11 4 11 23 -1 18 -5 28 -11 24 -6 -4 -8 0 -4 10 4 11 2 14
-9 10 -10 -3 -14 2 -14 18 0 12 -8 31 -17 42 -10 11 -12 17 -6 13 9 -5 11 -2
7 8 -3 9 -12 12 -22 8 -15 -5 -15 -4 -3 11 12 15 12 17 -3 11 -9 -4 -16 -3
-15 2 1 5 1 16 0 24 -1 13 -2 13 -11 0 -8 -13 -10 -13 -10 2 0 9 -6 19 -12 22
-7 3 -2 3 11 0 21 -5 22 -4 10 9 -8 8 -19 12 -26 10 -7 -3 -18 7 -24 21 -11
24 -21 31 -43 27 -5 -1 -6 6 -2 15 4 12 2 15 -9 11 -18 -7 -30 9 -14 19 8 5 9
3 4 -6 -5 -9 -4 -11 4 -6 16 10 4 26 -14 20 -8 -4 -18 1 -21 10 -3 9 -10 16
-16 16 -5 0 -6 -6 -2 -12 5 -9 2 -9 -9 1 -17 14 -24 26 -9 17 5 -3 9 1 9 9 0
8 -4 12 -8 9 -5 -3 -18 0 -29 6 -17 9 -19 8 -13 -7 5 -16 4 -16 -9 1 -8 10
-20 16 -26 12 -8 -4 -10 -2 -6 7 9 24 -15 34 -88 39 -28 2 -34 6 -26 16 8 9 7
11 -6 6 -9 -3 -16 -11 -16 -18 -1 -6 -8 0 -16 14 -8 14 -13 17 -10 8 3 -10 0
-20 -6 -24 -6 -4 -8 -3 -5 2 3 6 2 16 -4 24 -7 13 -9 12 -9 -1 0 -9 -8 -20
-17 -24 -15 -5 -16 -4 -5 6 19 20 14 29 -14 29 -16 0 -23 4 -18 12 4 7 3 8 -5
4 -6 -4 -9 -12 -6 -17 4 -5 -1 -9 -9 -9 -10 0 -13 6 -10 15 4 8 1 15 -6 15 -6
0 -8 -4 -5 -10 3 -5 1 -10 -5 -10 -6 0 -8 -5 -4 -12 4 -7 3 -8 -4 -4 -6 4 -9
13 -5 21 3 8 3 15 0 15 -3 0 -7 -7 -11 -15z m658 -461 c3 -8 2 -12 -4 -9 -6 3
-10 10 -10 16 0 14 7 11 14 -7z m-97 -131 c-4 -3 -2 -11 3 -18 7 -8 5 -12 -4
-12 -8 0 -12 7 -11 16 5 22 4 21 12 21 3 0 3 -3 0 -7z m140 -38 c0 -8 -4 -12
-9 -9 -5 3 -6 10 -3 15 9 13 12 11 12 -6z m23 -54 c0 -15 -28 -33 -34 -22 -4
5 -2 13 4 16 8 5 7 12 -2 23 -12 14 -10 14 10 3 12 -6 22 -15 22 -20z"/>
<path d="M1826 1614 c-4 -11 -13 -14 -31 -10 -14 4 -25 2 -25 -4 0 -5 3 -9 8
-9 19 3 32 -2 32 -12 0 -8 -5 -8 -15 1 -12 10 -15 10 -15 -1 0 -8 -6 -6 -16 7
-15 19 -16 19 -9 -1 3 -11 3 -16 -1 -13 -4 4 -16 2 -28 -4 -17 -9 -19 -8 -8 3
6 7 12 17 12 23 0 5 -9 -1 -20 -14 -12 -14 -20 -18 -20 -10 0 9 -5 7 -14 -5
-12 -17 -16 -18 -32 -5 -15 13 -16 13 -9 1 6 -11 4 -13 -10 -7 -16 6 -16 4 -4
-11 9 -11 10 -14 2 -9 -7 4 -13 2 -13 -3 0 -6 -6 -10 -12 -8 -7 1 -12 -4 -10
-11 1 -8 -2 -11 -8 -7 -6 3 -7 11 -4 17 4 5 -5 3 -18 -6 -14 -9 -27 -14 -30
-11 -3 3 -4 -5 -3 -19 2 -18 -1 -23 -11 -19 -8 3 -11 10 -7 17 3 6 2 7 -3 3
-5 -5 -9 -14 -9 -20 0 -7 -12 -11 -25 -9 -14 1 -20 -1 -14 -5 12 -9 15 -45 3
-38 -13 8 -39 -7 -32 -18 4 -7 0 -8 -12 -3 -15 5 -16 4 -5 -9 10 -12 9 -15 -6
-16 -14 -1 -13 -3 6 -9 19 -6 20 -8 6 -9 -14 -1 -16 -4 -7 -14 6 -8 8 -17 4
-20 -3 -4 -1 -7 6 -7 7 0 9 -4 6 -10 -3 -5 4 -10 16 -10 18 0 19 -2 9 -15 -13
-16 -9 -18 27 -15 18 1 21 -2 16 -16 -6 -16 -5 -17 9 -4 9 8 14 18 11 23 -2 4
1 7 7 7 6 0 8 5 5 10 -6 9 8 14 28 11 4 0 6 5 5 11 -2 7 2 12 8 11 5 -1 16 8
24 20 12 20 12 21 -3 8 -10 -7 -17 -9 -17 -3 0 18 24 20 50 4 22 -12 23 -12 8
1 -19 15 -25 33 -9 23 12 -8 41 4 41 16 0 6 -6 5 -15 -2 -10 -9 -15 -9 -15 -1
0 6 5 12 10 12 6 1 13 2 18 4 52 14 65 20 77 38 17 25 20 15 4 -14 -10 -20
-10 -20 15 -4 26 17 37 32 14 19 -10 -5 -10 -4 -1 6 12 13 37 5 28 -10 -3 -5
-1 -11 4 -14 5 -4 8 5 7 18 -2 17 1 23 10 19 8 -3 11 -10 7 -17 -4 -6 1 -5 10
3 9 7 14 18 10 25 -4 6 6 3 21 -8 16 -10 26 -14 22 -8 -3 5 1 13 10 16 12 5
15 2 10 -11 -5 -15 -4 -15 9 1 8 11 15 14 15 7 0 -7 5 -9 10 -6 6 4 8 10 5 15
-3 5 0 12 6 16 7 4 9 3 6 -3 -4 -6 0 -13 7 -16 10 -4 13 0 11 14 -3 15 0 19
10 15 10 -3 12 0 8 11 -5 12 -3 14 8 8 12 -8 12 -6 1 8 -8 9 -10 22 -6 29 6 9
3 9 -9 -1 -15 -12 -17 -12 -11 3 4 11 1 16 -10 16 -11 0 -16 7 -14 18 2 10 -3
17 -13 17 -9 0 -23 5 -30 10 -20 14 -54 12 -54 -3 0 -14 -13 -17 -23 -6 -4 4
-1 4 5 0 9 -5 11 -2 7 8 -8 20 -10 20 -18 0z m80 -13 c2 -7 0 -7 -3 -1 -3 8
-9 7 -17 -2 -6 -7 -10 -11 -9 -9 2 2 -2 9 -7 16 -7 8 -4 11 12 10 12 -1 23 -7
24 -14z m37 -16 c-3 -9 -8 -14 -10 -11 -3 3 -2 9 2 15 9 16 15 13 8 -4z m42
-65 c-3 -5 -12 -10 -18 -10 -7 0 -6 4 3 10 19 12 23 12 15 0z"/>
<path d="M1655 1581 c-3 -5 -2 -12 3 -15 5 -3 9 1 9 9 0 17 -3 19 -12 6z"/>
<path d="M1970 1586 c0 -2 7 -7 16 -10 8 -3 12 -2 9 4 -6 10 -25 14 -25 6z"/>
<path d="M2420 1520 c0 -5 5 -10 11 -10 5 0 7 5 4 10 -3 6 -8 10 -11 10 -2 0
-4 -4 -4 -10z"/>
<path d="M175 1493 c3 -3 0 -11 -5 -18 -7 -8 -5 -12 4 -12 14 0 16 22 3 32 -4
3 -5 2 -2 -2z"/>
<path d="M1850 1439 c0 -5 5 -7 10 -4 6 3 10 8 10 11 0 2 -4 4 -10 4 -5 0 -10
-5 -10 -11z"/>
<path d="M824 1421 c9 -10 13 -21 9 -25 -4 -4 1 -4 11 0 12 5 14 9 6 14 -6 4
-10 11 -8 15 1 5 -5 9 -15 11 -17 2 -17 1 -3 -15z"/>
<path d="M1678 1383 c7 -3 16 -2 19 1 4 3 -2 6 -13 5 -11 0 -14 -3 -6 -6z"/>
<path d="M2427 1239 c7 -7 15 -10 18 -7 3 3 -2 9 -12 12 -14 6 -15 5 -6 -5z"/>
<path d="M1110 1230 c0 -5 5 -10 11 -10 5 0 7 5 4 10 -3 6 -8 10 -11 10 -2 0
-4 -4 -4 -10z"/>
<path d="M1130 1200 c0 -5 5 -10 11 -10 5 0 7 5 4 10 -3 6 -8 10 -11 10 -2 0
-4 -4 -4 -10z"/>
<path d="M2407 1079 c7 -7 15 -10 18 -7 3 3 -2 9 -12 12 -14 6 -15 5 -6 -5z"/>
<path d="M1363 1052 c2 -12 6 -24 10 -28 3 -4 4 4 2 16 -6 30 -16 40 -12 12z"/>
<path d="M180 1036 c0 -2 7 -7 16 -10 8 -3 12 -2 9 4 -6 10 -25 14 -25 6z"/>
<path d="M2398 1033 c6 -2 9 -10 6 -15 -4 -7 -2 -8 5 -4 13 9 5 26 -12 25 -9
0 -8 -2 1 -6z"/>
<path d="M180 1016 c0 -2 7 -9 15 -16 9 -7 15 -8 15 -2 0 5 -7 12 -15 16 -8 3
-15 4 -15 2z"/>
<path d="M2286 745 c-11 -8 -15 -15 -9 -15 6 0 16 7 23 15 16 19 11 19 -14 0z"/>
<path d="M2263 695 c0 -8 4 -12 9 -9 5 3 6 10 3 15 -9 13 -12 11 -12 -6z"/>
<path d="M2120 526 c0 -8 4 -17 9 -20 5 -4 7 3 4 14 -6 23 -13 26 -13 6z"/>
<path d="M1835 300 c-3 -5 -1 -10 4 -10 6 0 11 5 11 10 0 6 -2 10 -4 10 -3 0
-8 -4 -11 -10z"/>
<path d="M857 238 c19 -21 31 -25 14 -5 -6 8 -9 16 -6 19 3 2 -2 5 -10 5 -13
0 -13 -3 2 -19z"/>
<path d="M997 203 c-11 -17 25 -26 40 -10 12 12 12 14 -1 14 -8 0 -13 -4 -10
-9 3 -4 1 -8 -5 -8 -5 0 -11 5 -13 12 -3 8 -6 9 -11 1z"/>
<path d="M1590 200 c0 -5 5 -10 10 -10 6 0 10 5 10 10 0 6 -4 10 -10 10 -5 0
-10 -4 -10 -10z"/>
<path d="M894 2544 c-18 -14 -18 -14 6 -3 31 14 36 19 24 19 -6 0 -19 -7 -30
-16z"/>
<path d="M1886 2473 c-6 -14 -5 -15 5 -6 7 7 10 15 7 18 -3 3 -9 -2 -12 -12z"/>
<path d="M593 2405 c0 -7 6 -11 14 -8 7 3 13 6 13 8 0 2 -6 5 -13 8 -8 3 -14
-1 -14 -8z"/>
<path d="M1995 2400 c3 -5 8 -10 11 -10 2 0 4 5 4 10 0 6 -5 10 -11 10 -5 0
-7 -4 -4 -10z"/>
<path d="M324 2182 c3 -5 0 -12 -6 -15 -7 -2 -10 -7 -7 -11 3 -4 12 0 18 8 9
11 9 16 0 22 -7 4 -9 3 -5 -4z"/>
<path d="M252 2085 c-12 -14 -18 -25 -13 -25 5 0 16 11 25 25 9 14 15 25 13
25 -2 0 -13 -11 -25 -25z"/>
<path d="M155 660 c3 -5 11 -10 16 -10 6 0 7 5 4 10 -3 6 -11 10 -16 10 -6 0
-7 -4 -4 -10z"/>
<path d="M450 310 c-9 -6 -10 -10 -3 -10 6 0 15 5 18 10 8 12 4 12 -15 0z"/>
<path d="M2126 287 c3 -10 9 -15 12 -12 3 3 0 11 -7 18 -10 9 -11 8 -5 -6z"/>
<path d="M1725 69 c-4 -6 -4 -13 -1 -16 3 -4 6 -1 6 7 0 10 4 10 18 -1 15 -13
16 -12 3 4 -16 20 -18 20 -26 6z"/>
</g>
</svg>
